<svg width="18" height="15" viewBox="0 0 18 15" xmlns="http://www.w3.org/2000/svg">
<path fill="#fff" d="M18 1.73609C17.2919 2.04068 16.5836 2.2309 15.8758 2.3073C16.6752 1.82762 17.216 1.14995 17.4978 0.274347C16.7664 0.708269 15.9861 1.00514 15.1563 1.16511C14.4252 0.388478 13.5269 0 12.4607 0C11.4405 0 10.5707 0.359715 9.85082 1.0793C9.13142 1.79885 8.77166 2.6687 8.77166 3.68896C8.77166 3.96302 8.80207 4.24485 8.86303 4.53416C7.35537 4.45803 5.94107 4.07924 4.61991 3.39777C3.29882 2.71622 2.17763 1.80822 1.25635 0.673746C0.921306 1.24468 0.753736 1.86534 0.753736 2.53537C0.753736 3.16735 0.902186 3.75372 1.1993 4.29434C1.49621 4.83487 1.89605 5.27263 2.39861 5.6077C1.8046 5.58482 1.24878 5.42869 0.731096 5.13934V5.18502C0.731096 6.07595 1.01092 6.85815 1.5705 7.53221C2.13015 8.2062 2.83642 8.63044 3.68914 8.80565C3.36931 8.8893 3.04564 8.93119 2.71828 8.93119C2.50506 8.93119 2.2728 8.91218 2.02158 8.87438C2.2576 9.61281 2.69164 10.2198 3.32354 10.696C3.95556 11.1718 4.67131 11.4171 5.47083 11.4327C4.13078 12.4833 2.60415 13.0086 0.890946 13.0086C0.563476 13.0086 0.266607 12.9937 6.10352e-05 12.9631C1.71331 14.067 3.60161 14.619 5.66509 14.619C6.97473 14.619 8.20445 14.4117 9.35382 13.9966C10.5038 13.5818 11.4859 13.0259 12.3007 12.329C13.1153 11.6324 13.8178 10.831 14.4079 9.92492C14.9979 9.0188 15.4375 8.07282 15.7271 7.08681C16.0163 6.10059 16.161 5.11286 16.161 4.12284C16.161 3.90962 16.1572 3.7498 16.1495 3.64315C16.8731 3.11802 17.4898 2.48212 18 1.73609Z"/>
</svg>
